<?xml version="1.0" encoding="UTF-8"?>
<svg xmlns="http://www.w3.org/2000/svg" xmlns:xlink="http://www.w3.org/1999/xlink" width="612pt" height="151.9pt" viewBox="0 0 612 151.9" version="1.1">
<g id="surface1">
<path style="fill-rule:evenodd;fill:rgb(0%,26.268005%,58.006287%);fill-opacity:1;stroke-width:47.079;stroke-linecap:round;stroke-linejoin:round;stroke:rgb(100%,100%,100%);stroke-opacity:1;stroke-miterlimit:4;" d="M 988.632813 1053.882813 C 1150.9375 724.078125 1015.117188 325.171875 685.351563 162.867188 C 355.546875 0.5625 -43.398438 136.382813 -205.664063 466.148438 C -367.96875 795.953125 -232.1875 1194.859375 97.617188 1357.164063 C 427.421875 1519.46875 826.328125 1383.648438 988.632813 1053.882813 Z M 988.632813 1053.882813 " transform="matrix(0.1,0,0,-0.1,0,151.9)"/>
<path style=" stroke:none;fill-rule:evenodd;fill:rgb(100%,100%,100%);fill-opacity:1;" d="M 101.042969 91.6875 L 9.152344 135.3125 C 10.804688 136.144531 12.488281 136.910156 14.203125 137.601563 Z M -27.375 73.453125 L 68.804688 20.070313 L -26.414063 64.425781 C -26.9375 67.398438 -27.261719 70.414063 -27.375 73.453125 Z M -27.140625 82.070313 L 77.179688 25.503906 L -27.421875 75.503906 C -27.433594 77.6875 -27.34375 79.878906 -27.140625 82.070313 Z M -25.476563 91.871094 L 84.304688 31.914063 L -26.863281 84.515625 C -26.542969 86.972656 -26.082031 89.429688 -25.476563 91.871094 Z M -22.671875 100.558594 L 90.382813 38.226563 L -24.96875 93.796875 C -24.332031 96.066406 -23.566406 98.328125 -22.671875 100.558594 Z M 95.183594 45.84375 L -22.078125 101.996094 C -21.609375 103.097656 -21.105469 104.195313 -20.566406 105.285156 C -20.007813 106.425781 -19.417969 107.542969 -18.800781 108.636719 Z M -14.292969 115.589844 L 98.664063 53.675781 L -18.125 109.808594 C -16.9375 111.820313 -15.65625 113.746094 -14.292969 115.589844 Z M -8.664063 122.222656 L 101.09375 62.839844 L -13.105469 117.140625 C -11.703125 118.921875 -10.21875 120.617188 -8.664063 122.222656 Z M -2.601563 127.753906 L 102.261719 71.496094 L -6.929688 123.945313 C -5.539063 125.28125 -4.09375 126.550781 -2.601563 127.753906 Z M 5.371094 133.253906 L 102.332031 81.378906 L 0.445313 130.058594 C 2.042969 131.203125 3.6875 132.265625 5.371094 133.253906 Z M 5.371094 133.253906 "/>
<path style="fill-rule:evenodd;fill:rgb(0%,26.268005%,58.006287%);fill-opacity:1;stroke-width:106.627;stroke-linecap:round;stroke-linejoin:round;stroke:rgb(100%,100%,100%);stroke-opacity:1;stroke-miterlimit:4;" d="M 1218.164063 142.125 L 1218.164063 1381.03125 L 1718.632813 1381.03125 C 1811.367188 1381.03125 1882.421875 1370.992188 1931.289063 1350.523438 C 1980.390625 1330.328125 2019.960938 1292.554688 2050.078125 1237.710938 C 2080.15625 1182.671875 2095.078125 1115.484375 2095.078125 1036.460938 C 2095.078125 967.789063 2083.554688 908.375 2060.46875 858.492188 C 2037.617188 808.335938 2005.9375 767.945313 1965.429688 736.8125 C 1939.882813 717.203125 1904.570313 700.71875 1860 687.789063 C 1895.742188 672.476563 1921.796875 657.476563 1938.046875 642.203125 C 1948.945313 632.125 1965 610.210938 1986.015625 577.046875 C 2006.835938 543.84375 2020.859375 518.140625 2027.890625 500.015625 L 2173.828125 142.125 L 1834.453125 142.125 L 1674.023438 519.9375 C 1653.671875 568.960938 1635.585938 600.640625 1619.726563 615.367188 C 1598.046875 634.390625 1573.359375 643.921875 1545.976563 643.921875 L 1519.53125 643.921875 L 1519.53125 142.125 Z M 5032.382813 1381.03125 L 5945.976563 1381.03125 L 5945.976563 1074.78125 L 5639.179688 1074.78125 L 5639.179688 142.125 L 5339.179688 142.125 L 5339.179688 1074.78125 L 5032.382813 1074.78125 Z M 3924.492188 1381.03125 L 4204.804688 1381.03125 L 4569.296875 696.96875 L 4569.296875 1381.03125 L 4852.96875 1381.03125 L 4852.96875 142.125 L 4569.296875 142.125 L 4206.835938 822.4375 L 4206.835938 142.125 L 3924.492188 142.125 Z M 2893.710938 1381.03125 L 3697.34375 1381.03125 L 3697.34375 1116.34375 L 3195.078125 1116.34375 L 3195.078125 919.078125 L 3660.703125 919.078125 L 3660.703125 666.421875 L 3195.078125 666.421875 L 3195.078125 422.4375 L 3712.265625 422.4375 L 3712.265625 142.125 L 2893.710938 142.125 Z M 2329.921875 1381.03125 L 2631.289063 1381.03125 L 2631.289063 142.125 L 2329.921875 142.125 Z M 1519.53125 877.554688 L 1646.445313 877.554688 C 1660 877.554688 1686.71875 883.296875 1726.09375 894.546875 C 1745.976563 899.429688 1762.265625 912.4375 1774.726563 933.492188 C 1787.382813 954.546875 1793.710938 978.492188 1793.710938 1005.601563 C 1793.710938 1045.640625 1783.75 1076.539063 1763.867188 1097.867188 C 1743.945313 1119.507813 1706.601563 1130.171875 1651.640625 1130.171875 L 1519.53125 1130.171875 Z M 1519.53125 877.554688 " transform="matrix(0.1,0,0,-0.1,0,151.9)"/>
<path style=" stroke:none;fill-rule:evenodd;fill:rgb(0%,0.784302%,0%);fill-opacity:1;" d="M 613.066406 28.394531 L 613.066406 16.269531 L 608.304688 16.269531 L 608.304688 13.804688 L 621.066406 13.804688 L 621.066406 16.269531 L 616.324219 16.269531 L 616.324219 28.394531 Z M 623.917969 28.394531 L 623.917969 13.804688 L 628.800781 13.804688 L 631.683594 23.753906 L 634.53125 13.804688 L 639.421875 13.804688 L 639.421875 28.394531 L 636.410156 28.394531 L 636.398438 16.910156 L 633.226563 28.394531 L 630.097656 28.394531 L 626.941406 16.910156 L 626.929688 28.394531 Z M 623.917969 28.394531 "/>
</g>
</svg>
