<?xml version="1.0" encoding="UTF-8"?>
<svg xmlns="http://www.w3.org/2000/svg" xmlns:xlink="http://www.w3.org/1999/xlink" width="569.1pt" height="569.1pt" viewBox="0 0 569.1 569.1" version="1.1">
<g id="surface1">
<path style=" stroke:none;fill-rule:evenodd;fill:rgb(0%,26.268005%,58.006287%);fill-opacity:1;" d="M 240.246094 97.605469 C 382.773438 65.105469 518.175781 125.859375 542.671875 233.292969 C 567.164063 340.730469 471.484375 454.171875 328.953125 486.667969 C 186.429688 519.167969 51.03125 458.414063 26.53125 350.980469 C 2.035156 243.542969 97.71875 130.101563 240.246094 97.605469 Z M 569.113281 284.5 C 569.113281 127.371094 441.734375 -0.0078125 284.601563 -0.0078125 C 127.46875 -0.0078125 0.0859375 127.371094 0.0859375 284.5 C 0.0859375 441.628906 127.46875 569.007813 284.601563 569.007813 C 441.734375 569.007813 569.113281 441.628906 569.113281 284.5 Z M 569.113281 284.5 "/>
<path style=" stroke:none;fill-rule:evenodd;fill:rgb(100%,100%,100%);fill-opacity:1;" d="M 240.246094 97.605469 C 97.71875 130.101563 2.035156 243.542969 26.53125 350.980469 C 51.03125 458.414063 186.429688 519.167969 328.953125 486.667969 C 471.484375 454.171875 567.164063 340.730469 542.671875 233.292969 C 518.175781 125.859375 382.773438 65.105469 240.246094 97.605469 Z M 240.246094 97.605469 "/>
<path style=" stroke:none;fill-rule:evenodd;fill:rgb(0%,26.268005%,58.006287%);fill-opacity:1;" d="M 301.359375 238.433594 L 301.359375 288.460938 C 305.703125 286.707031 308.964844 284.792969 311.136719 282.722656 C 313.40625 280.558594 315.039063 277.585938 316.039063 273.8125 C 316.816406 271.15625 317.671875 269.339844 318.617188 268.359375 C 319.558594 267.382813 321.078125 266.894531 323.1875 266.894531 C 325.621094 266.894531 327.230469 267.488281 328.007813 268.675781 C 328.78125 269.863281 329.164063 272.136719 329.164063 275.488281 L 329.164063 314.070313 C 329.164063 317.429688 328.726563 319.699219 327.839844 320.886719 C 326.953125 322.074219 325.402344 322.667969 323.1875 322.667969 C 321.414063 322.667969 319.996094 322.214844 318.949219 321.304688 C 317.894531 320.398438 316.980469 318.824219 316.203125 316.589844 C 314.871094 311.835938 312.964844 308.203125 310.472656 305.6875 C 308.105469 303.300781 305.070313 301.664063 301.359375 300.789063 L 301.359375 354.6875 C 310.828125 353.660156 318.519531 351.027344 324.433594 346.78125 C 330.472656 342.449219 335.203125 336.230469 338.644531 328.121094 C 338.863281 327.703125 339.085938 327.28125 339.308594 326.863281 C 339.53125 326.445313 339.695313 326.09375 339.808594 325.816406 C 340.578125 324.558594 341.386719 323.683594 342.21875 323.191406 C 343.046875 322.703125 344.128906 322.460938 345.453125 322.460938 C 348.007813 322.460938 349.722656 322.984375 350.609375 324.03125 C 351.496094 325.082031 351.941406 327.070313 351.941406 330.007813 L 351.941406 365.863281 L 243.683594 365.863281 C 240.578125 365.863281 238.285156 365.410156 236.789063 364.5 C 235.289063 363.59375 234.539063 362.230469 234.539063 360.414063 C 234.539063 359.15625 234.960938 358.070313 235.789063 357.164063 C 236.621094 356.253906 237.867188 355.589844 239.53125 355.171875 C 240.195313 355.03125 240.828125 354.859375 241.441406 354.644531 C 242.050781 354.4375 242.578125 354.261719 243.019531 354.121094 C 244.789063 353.421875 245.902344 352.652344 246.34375 351.816406 C 246.789063 350.976563 247.007813 349.511719 247.007813 347.414063 L 247.007813 244.667969 C 247.007813 242.710938 246.789063 241.3125 246.34375 240.472656 C 245.902344 239.632813 244.789063 238.863281 243.019531 238.167969 C 242.578125 238.027344 242.050781 237.851563 241.441406 237.640625 C 240.828125 237.433594 240.195313 237.257813 239.53125 237.117188 C 237.867188 236.699219 236.621094 236.035156 235.789063 235.125 C 234.960938 234.21875 234.539063 233.132813 234.539063 231.875 C 234.539063 229.917969 235.320313 228.484375 236.871094 227.578125 C 238.421875 226.667969 240.695313 226.214844 243.683594 226.214844 L 247.007813 226.003906 L 350.113281 226.003906 L 350.113281 262.492188 C 350.113281 264.726563 349.664063 266.335938 348.78125 267.3125 C 347.894531 268.292969 346.34375 268.78125 344.128906 268.78125 C 342.464844 268.78125 341.191406 268.535156 340.304688 268.046875 C 339.414063 267.558594 338.644531 266.472656 337.980469 264.796875 C 337.867188 264.796875 337.785156 264.726563 337.730469 264.585938 C 337.675781 264.445313 337.644531 264.308594 337.644531 264.167969 C 334.539063 256.058594 329.996094 249.945313 324.015625 245.820313 C 318.160156 241.785156 310.609375 239.320313 301.359375 238.433594 Z M 142.796875 237.335938 L 142.796875 300.953125 C 147.238281 299.960938 150.300781 298.460938 151.984375 296.457031 C 153.867188 294.1875 154.808594 290.414063 154.808594 285.066406 L 154.808594 252.039063 C 154.808594 247.285156 153.785156 243.757813 151.734375 241.417969 C 149.914063 239.367188 146.9375 238.007813 142.796875 237.335938 Z M 142.796875 312.597656 L 142.796875 346.363281 C 142.796875 349.019531 143.15625 350.835938 143.878906 351.816406 C 144.597656 352.792969 146.398438 353.632813 149.28125 354.332031 C 149.722656 354.472656 150.164063 354.578125 150.609375 354.644531 C 151.050781 354.714844 151.496094 354.820313 151.9375 354.960938 C 153.824219 355.242188 155.261719 355.835938 156.261719 356.742188 C 157.257813 357.652344 157.757813 358.804688 157.757813 360.203125 C 157.757813 362.160156 156.898438 363.59375 155.179688 364.5 C 153.460938 365.410156 150.71875 365.863281 146.953125 365.863281 L 85.121094 365.863281 C 82.023438 365.863281 79.722656 365.410156 78.226563 364.5 C 76.730469 363.59375 75.984375 362.230469 75.984375 360.414063 C 75.984375 359.15625 76.398438 358.070313 77.230469 357.164063 C 78.058594 356.253906 79.308594 355.589844 80.96875 355.171875 C 81.632813 355.03125 82.269531 354.859375 82.878906 354.644531 C 83.488281 354.4375 84.015625 354.261719 84.460938 354.121094 C 86.230469 353.421875 87.339844 352.652344 87.785156 351.816406 C 88.226563 350.976563 88.449219 349.511719 88.449219 347.414063 L 88.449219 244.667969 C 88.449219 242.710938 88.226563 241.3125 87.785156 240.472656 C 87.339844 239.632813 86.230469 238.863281 84.460938 238.167969 C 84.015625 238.027344 83.488281 237.851563 82.878906 237.640625 C 82.269531 237.433594 81.632813 237.257813 80.96875 237.117188 C 79.308594 236.699219 78.058594 236.035156 77.230469 235.125 C 76.398438 234.21875 75.984375 233.132813 75.984375 231.875 C 75.984375 229.917969 76.757813 228.484375 78.308594 227.578125 C 79.859375 226.667969 82.132813 226.214844 85.121094 226.214844 L 88.449219 226.003906 L 143.175781 226.003906 C 144.0625 226.144531 144.976563 226.214844 145.914063 226.214844 C 146.859375 226.214844 147.773438 226.214844 148.660156 226.214844 C 152.316406 226.355469 155.890625 226.597656 159.382813 226.949219 C 162.871094 227.296875 166.003906 227.679688 168.773438 228.101563 C 180.960938 229.917969 190.546875 234.496094 197.527344 241.835938 C 204.507813 249.175781 207.996094 258.226563 207.996094 268.992188 C 207.996094 280.03125 204.339844 289.292969 197.027344 296.773438 C 189.714844 304.25 179.632813 308.96875 166.777344 310.925781 C 163.011719 311.484375 159.019531 311.90625 154.808594 312.1875 C 151.070313 312.433594 147.0625 312.570313 142.796875 312.597656 Z M 447.621094 365.863281 L 389.945313 365.863281 C 386.84375 365.863281 384.539063 365.410156 383.046875 364.5 C 381.550781 363.59375 380.804688 362.230469 380.804688 360.414063 C 380.804688 359.15625 381.21875 358.070313 382.050781 357.164063 C 382.882813 356.253906 384.128906 355.589844 385.789063 355.171875 C 386.453125 355.03125 387.09375 354.859375 387.703125 354.644531 C 388.3125 354.4375 388.839844 354.261719 389.28125 354.121094 C 391.054688 353.421875 392.164063 352.652344 392.605469 351.816406 C 393.046875 350.976563 393.269531 349.511719 393.269531 347.414063 L 393.269531 244.667969 C 393.269531 242.710938 393.046875 241.3125 392.605469 240.472656 C 392.164063 239.632813 391.054688 238.863281 389.28125 238.167969 C 388.839844 238.027344 388.3125 237.851563 387.703125 237.640625 C 387.09375 237.433594 386.453125 237.257813 385.789063 237.117188 C 384.128906 236.664063 382.882813 236 382.050781 235.054688 C 381.21875 234.113281 380.804688 232.960938 380.804688 231.667969 C 380.804688 229.707031 381.578125 228.277344 383.132813 227.367188 C 384.683594 226.460938 386.953125 226.003906 389.945313 226.003906 L 393.269531 225.792969 L 451.777344 225.792969 C 455.539063 226.074219 458.285156 226.667969 460.003906 227.578125 C 461.71875 228.484375 462.578125 229.917969 462.578125 231.875 C 462.578125 233.273438 462.078125 234.425781 461.078125 235.335938 C 460.085938 236.242188 458.644531 236.90625 456.761719 237.328125 C 456.203125 237.464844 455.652344 237.605469 455.101563 237.746094 C 454.546875 237.886719 454.046875 237.957031 453.605469 237.957031 C 450.945313 238.65625 449.28125 239.496094 448.617188 240.472656 C 447.953125 241.449219 447.621094 243.164063 447.621094 245.539063 L 447.621094 354.210938 C 450.242188 353.945313 452.367188 353.601563 453.996094 353.175781 C 455.878906 352.691406 457.652344 352.023438 459.316406 351.1875 C 459.425781 351.1875 459.507813 351.152344 459.5625 351.082031 C 459.621094 351.011719 459.703125 350.976563 459.8125 350.976563 C 463.914063 348.878906 467.621094 345.699219 470.949219 341.4375 C 474.273438 337.171875 476.933594 332.246094 478.925781 326.652344 C 479.371094 325.394531 479.8125 324.3125 480.257813 323.40625 C 480.699219 322.496094 481.085938 321.691406 481.421875 320.992188 C 482.195313 319.734375 483.054688 318.859375 483.996094 318.371094 C 484.9375 317.882813 486.074219 317.636719 487.402344 317.636719 C 489.621094 317.636719 491.144531 318.160156 491.972656 319.210938 C 492.804688 320.257813 493.222656 321.96875 493.222656 324.347656 L 493.222656 365.863281 Z M 447.621094 365.863281 "/>
</g>
</svg>
